<svg xmlns="http://www.w3.org/2000/svg" viewBox="0 18.600000381469727 306.79998779296875 49.45000457763672" data-asc="1.193" width="306.79998779296875" height="49.45000457763672"><defs/><g><g fill="#dc2626"><g transform="translate(0, 0)"><path d="M12.15 60.25Q7.55 60.25 4.88 58.58Q2.20 56.90 1.10 53.88Q0 50.85 0 46.75L0 32.15Q0 27.95 1.10 24.93Q2.20 21.90 4.88 20.25Q7.55 18.60 12.15 18.60Q16.65 18.60 19.18 20.08Q21.70 21.55 22.75 24.20Q23.80 26.85 23.80 30.30L23.80 33.80L15.05 33.80L15.05 29.75Q15.05 28.55 14.93 27.45Q14.80 26.35 14.20 25.63Q13.60 24.90 12.15 24.90Q10.75 24.90 10.07 25.65Q9.40 26.40 9.23 27.53Q9.05 28.65 9.05 29.90L9.05 48.95Q9.05 50.30 9.28 51.43Q9.50 52.55 10.18 53.23Q10.85 53.90 12.15 53.90Q13.55 53.90 14.15 53.18Q14.75 52.45 14.90 51.30Q15.05 50.15 15.05 48.95L15.05 44.70L23.80 44.70L23.80 48.20Q23.80 51.65 22.78 54.38Q21.75 57.10 19.23 58.68Q16.70 60.25 12.15 60.25ZM28.30 59.65L28.30 19.15L36.40 19.15L36.40 33.30Q38 31.70 39.75 30.98Q41.50 30.25 43.50 30.25Q45.25 30.25 46.43 31.13Q47.60 32 48.20 33.53Q48.80 35.05 48.80 37L48.80 59.65L40.70 59.65L40.70 38.15Q40.70 37.10 40.35 36.55Q40 36 39.05 36Q38.55 36 37.85 36.28Q37.15 36.55 36.40 37.05L36.40 59.65L28.30 59.65ZM53.75 59.65L53.75 30.75L61.90 30.75L61.90 59.65L53.75 59.65M53.70 25.85L53.70 20.20L61.90 20.20L61.90 25.85L53.70 25.85ZM67.05 59.65L67.05 30.75L75.20 30.75L75.20 35.55Q76.60 33.05 78 31.73Q79.40 30.40 81.40 30.40Q81.80 30.40 82.10 30.43Q82.40 30.45 82.65 30.55L82.65 38.65Q82.10 38.40 81.43 38.23Q80.75 38.05 80 38.05Q78.60 38.05 77.40 38.80Q76.20 39.55 75.20 40.85L75.20 59.65L67.05 59.65ZM90.40 60.15Q88.20 60.15 86.70 59.10Q85.20 58.05 84.45 56.43Q83.70 54.80 83.70 53.10Q83.70 50.40 84.78 48.55Q85.85 46.70 87.60 45.45Q89.35 44.20 91.45 43.33Q93.55 42.45 95.60 41.75L95.60 38.85Q95.60 38.10 95.45 37.53Q95.30 36.95 94.95 36.63Q94.60 36.30 93.90 36.30Q93.20 36.30 92.83 36.60Q92.45 36.90 92.30 37.43Q92.15 37.95 92.10 38.60L91.90 40.70L84.30 40.40Q84.55 35.20 87.08 32.73Q89.60 30.25 94.65 30.25Q99.05 30.25 101.23 32.68Q103.40 35.10 103.40 38.95L103.40 52.45Q103.40 54.25 103.48 55.60Q103.55 56.95 103.68 57.95Q103.80 58.95 103.90 59.65L96.60 59.65Q96.45 58.50 96.25 57.15Q96.05 55.80 95.95 55.55Q95.45 57.35 94.08 58.75Q92.70 60.15 90.40 60.15M93.30 54.65Q93.80 54.65 94.23 54.45Q94.65 54.25 95.00 53.90Q95.35 53.55 95.60 53.20L95.60 45.30Q94.60 45.90 93.75 46.53Q92.90 47.15 92.30 47.90Q91.70 48.65 91.38 49.53Q91.05 50.40 91.05 51.50Q91.05 52.95 91.65 53.80Q92.25 54.65 93.30 54.65ZM108.85 68.05L108.85 62.40Q110.40 62.40 111.43 62.20Q112.45 62.00 112.98 61.45Q113.50 60.90 113.50 59.95Q113.50 59.10 113.20 57.88Q112.90 56.65 112.45 55.10L105.65 30.75L113.30 30.75L116.95 47.45L119.70 30.75L127.40 30.75L120.75 60.35Q120.10 63.35 118.70 65.03Q117.30 66.70 115.28 67.38Q113.25 68.05 110.70 68.05L108.85 68.05ZM135.55 60.15Q133.80 60.15 132.58 59.28Q131.35 58.40 130.75 56.85Q130.15 55.30 130.15 53.40L130.15 30.75L138.30 30.75L138.30 52.45Q138.30 53.50 138.68 54.08Q139.05 54.65 140.00 54.65Q140.55 54.65 141.15 54.38Q141.75 54.10 142.40 53.75L142.40 30.75L150.50 30.75L150.50 59.65L142.40 59.65L142.40 57.00Q140.85 58.45 139.13 59.30Q137.40 60.15 135.55 60.15ZM168.90 59.65L168.90 19.15L177.85 19.15L177.85 35.70L184.65 19.15L193.40 19.15L185.90 37.45L193.75 59.65L184.65 59.65L178.80 41.75L177.85 43.35L177.85 59.65L168.90 59.65ZM196.85 59.65L196.85 19.15L204.95 19.15L204.95 33.30Q206.55 31.70 208.30 30.98Q210.05 30.25 212.05 30.25Q213.80 30.25 214.98 31.13Q216.15 32 216.75 33.53Q217.35 35.05 217.35 37L217.35 59.65L209.25 59.65L209.25 38.15Q209.25 37.10 208.90 36.55Q208.55 36 207.60 36Q207.10 36 206.40 36.28Q205.70 36.55 204.95 37.05L204.95 59.65L196.85 59.65ZM227.40 60.15Q225.20 60.15 223.70 59.10Q222.20 58.05 221.45 56.43Q220.70 54.80 220.70 53.10Q220.70 50.40 221.78 48.55Q222.85 46.70 224.60 45.45Q226.35 44.20 228.45 43.33Q230.55 42.45 232.60 41.75L232.60 38.85Q232.60 38.10 232.45 37.53Q232.30 36.95 231.95 36.63Q231.60 36.30 230.90 36.30Q230.20 36.30 229.83 36.60Q229.45 36.90 229.30 37.43Q229.15 37.95 229.10 38.60L228.90 40.70L221.30 40.40Q221.55 35.20 224.08 32.73Q226.60 30.25 231.65 30.25Q236.05 30.25 238.23 32.68Q240.40 35.10 240.40 38.95L240.40 52.45Q240.40 54.25 240.48 55.60Q240.55 56.95 240.68 57.95Q240.80 58.95 240.90 59.65L233.60 59.65Q233.45 58.50 233.25 57.15Q233.05 55.80 232.95 55.55Q232.45 57.35 231.08 58.75Q229.70 60.15 227.40 60.15M230.30 54.65Q230.80 54.65 231.23 54.45Q231.65 54.25 232.00 53.90Q232.35 53.55 232.60 53.20L232.60 45.30Q231.60 45.90 230.75 46.53Q229.90 47.15 229.30 47.90Q228.70 48.65 228.38 49.53Q228.05 50.40 228.05 51.50Q228.05 52.95 228.65 53.80Q229.25 54.65 230.30 54.65ZM245.60 59.65L245.60 19.15L253.70 19.15L253.70 59.65L245.60 59.65ZM261.70 59.65L257.45 30.75L264.25 30.75L266.35 47.15L268.60 30.75L274.50 30.75L276.45 47.55L278.90 30.75L285.20 30.75L280.90 59.65L273.90 59.65L271.40 43.40L268.60 59.65L261.70 59.65ZM293.30 60.15Q291.10 60.15 289.60 59.10Q288.10 58.05 287.35 56.43Q286.60 54.80 286.60 53.10Q286.60 50.40 287.68 48.55Q288.75 46.70 290.50 45.45Q292.25 44.20 294.35 43.33Q296.45 42.45 298.50 41.75L298.50 38.85Q298.50 38.10 298.35 37.53Q298.20 36.95 297.85 36.63Q297.50 36.30 296.80 36.30Q296.10 36.30 295.73 36.60Q295.35 36.90 295.20 37.43Q295.05 37.95 295.00 38.60L294.80 40.70L287.20 40.40Q287.45 35.20 289.98 32.73Q292.50 30.25 297.55 30.25Q301.95 30.25 304.13 32.68Q306.30 35.10 306.30 38.95L306.30 52.45Q306.30 54.25 306.38 55.60Q306.45 56.95 306.58 57.95Q306.70 58.95 306.80 59.65L299.50 59.65Q299.35 58.50 299.15 57.15Q298.95 55.80 298.85 55.55Q298.35 57.35 296.98 58.75Q295.60 60.15 293.30 60.15M296.20 54.65Q296.70 54.65 297.13 54.45Q297.55 54.25 297.90 53.90Q298.25 53.55 298.50 53.20L298.50 45.30Q297.50 45.90 296.65 46.53Q295.80 47.15 295.20 47.90Q294.60 48.65 294.28 49.53Q293.95 50.40 293.95 51.50Q293.95 52.95 294.55 53.80Q295.15 54.65 296.20 54.65Z"/></g></g></g></svg>